<svg xmlns="http://www.w3.org/2000/svg" viewBox="0 0 48 48" role="img" aria-hidden="true">
  <path fill="#48b564" d="M24 4C14.6 4 7 11.6 7 21c0 12.5 17 23 17 23s17-10.5 17-23C41 11.6 33.4 4 24 4z"/>
  <path fill="#fec412" d="M24 4v44s17-10.5 17-23C41 11.6 33.4 4 24 4z"/>
  <path fill="#d33f2f" d="M24 4C14.6 4 7 11.6 7 21c0 1.7.3 3.4.8 5h32.4c.5-1.6.8-3.3.8-5 0-9.4-7.6-17-17-17z"/>
  <circle fill="#fff" cx="24" cy="21" r="7"/>
  <path fill="#4285f4" d="M31 21c0-3.9-3.1-7-7-7s-7 3.1-7 7 3.1 7 7 7 7-3.1 7-7z"/>
</svg>
