<svg xmlns="http://www.w3.org/2000/svg" viewBox="0 0 24 24" role="img" aria-hidden="true">
  <defs>
    <linearGradient id="ig" x1="0%" y1="100%" x2="100%" y2="0%">
      <stop offset="0%" stop-color="#FD5949"/>
      <stop offset="50%" stop-color="#D6249F"/>
      <stop offset="100%" stop-color="#285AEB"/>
    </linearGradient>
  </defs>
  <path fill="url(#ig)" d="M12 2.163c3.204 0 3.584.012 4.85.07 1.366.062 2.633.334 3.608 1.308.974.974 1.246 2.241 1.308 3.608.058 1.266.07 1.646.07 4.85s-.012 3.584-.07 4.85c-.062 1.366-.334 2.633-1.308 3.608-.974.974-2.241 1.246-3.608 1.308-1.266.058-1.646.07-4.85.07s-3.584-.012-4.85-.07c-1.366-.062-2.633-.334-3.608-1.308-.974-.974-1.246-2.241-1.308-3.608C2.175 15.747 2.163 15.367 2.163 12s.012-3.584.07-4.85c.062-1.366.334-2.633 1.308-3.608.974-.974 2.241-1.246 3.608-1.308C8.416 2.175 8.796 2.163 12 2.163zm0-2.163C8.741 0 8.332.014 7.052.072 5.775.13 4.602.402 3.635 1.37 2.668 2.337 2.396 3.51 2.338 4.788 2.28 6.068 2.266 6.477 2.266 12c0 5.523.014 5.932.072 7.212.058 1.278.33 2.451 1.297 3.418.967.967 2.14 1.239 3.418 1.297 1.28.058 1.689.072 7.212.072s5.932-.014 7.212-.072c1.278-.058 2.451-.33 3.418-1.297.967-.967 1.239-2.14 1.297-3.418.058-1.28.072-1.689.072-7.212s-.014-5.932-.072-7.212c-.058-1.278-.33-2.451-1.297-3.418-.967-.967-2.14-1.239-3.418-1.297C15.932.014 15.523 0 12 0zm0 5.838a6.162 6.162 0 1 0 0 12.324 6.162 6.162 0 0 0 0-12.324zM12 16a4 4 0 1 1 0-8 4 4 0 0 1 0 8zm6.406-11.845a1.44 1.44 0 1 0 0 2.881 1.44 1.44 0 0 0 0-2.881z"/>
</svg>
