<svg xmlns="http://www.w3.org/2000/svg" viewBox="0 0 80 24" role="img" aria-label="Cart§es de crķdito e dķbito">
  <rect x="0" y="1" width="34" height="22" rx="4" fill="#1A1F71"/>
  <path fill="#FFFFFF" d="M13.2 15.1h-1.5l-.9-2.3-.9 2.3H8.4l1.6-4h1.2l1.5 3.8 1.5-3.8h1.2zm6.1 0h-1.2v-3.1c0-.9-.4-1.3-1.2-1.3-.7 0-1.2.4-1.2 1.3v3.1h-1.2V8.9h1.2v1c.4-.7 1.1-1.1 2-1.1 1.4 0 2.3.9 2.3 2.6zm4.1 0h-1.2V8.9h1.2zm8.2-4.1c1.2 0 2 .6 2.1 1.7h-1.2c-.1-.5-.5-.8-1-.8-.6 0-1 .3-1 .7 0 .3.2.6.8.7l1 .2c1.2.3 1.7.8 1.7 1.8 0 1.2-1 2-2.5 2-1.4 0-2.3-.7-2.4-1.8h1.2c.1.6.6.9 1.3.9.7 0 1.1-.3 1.1-.8 0-.4-.3-.6-1-.8l-1-.2c-1.1-.3-1.6-.8-1.6-1.7 0-1.1.9-1.9 2.3-1.9z"/>
  <circle cx="54" cy="12" r="9" fill="#EB001B"/>
  <circle cx="66" cy="12" r="9" fill="#F79E1B" fill-opacity="0.95"/>
</svg>
