<svg xmlns="http://www.w3.org/2000/svg" viewBox="0 0 24 24" role="img" aria-hidden="true">
  <defs>
    <radialGradient id="ig-a" cx="0" cy="1" r="1" gradientUnits="userSpaceOnUse" gradientTransform="matrix(0 -23.7854 22.3347 0 2.36 23.785)">
      <stop stop-color="#FFDD55"/>
      <stop offset=".1" stop-color="#FFDD55"/>
      <stop offset=".5" stop-color="#FF543E"/>
      <stop offset="1" stop-color="#C837AB"/>
    </radialGradient>
    <radialGradient id="ig-b" cx="0" cy="1" r="1" gradientUnits="userSpaceOnUse" gradientTransform="matrix(18.3761 23.7854 -22.3347 17.2111 1.884 3.54)">
      <stop stop-color="#3771C8"/>
      <stop offset=".128" stop-color="#3771C8"/>
      <stop offset="1" stop-color="#6600FF" stop-opacity="0"/>
    </radialGradient>
  </defs>
  <path fill="url(#ig-a)" d="M16.6875 0H7.3125C3.28125 0 0 3.28125 0 7.3125V16.6875C0 20.7188 3.28125 24 7.3125 24H16.6875C20.7188 24 24 20.7188 24 16.6875V7.3125C24 3.28125 20.7188 0 16.6875 0Z"/>
  <path fill="url(#ig-b)" d="M16.6875 0H7.3125C3.28125 0 0 3.28125 0 7.3125V16.6875C0 20.7188 3.28125 24 7.3125 24H16.6875C20.7188 24 24 20.7188 24 16.6875V7.3125C24 3.28125 20.7188 0 16.6875 0Z"/>
  <path fill="#fff" d="M12 5.67188C14.3125 5.67188 14.6016 5.67969 15.5469 5.72656C16.4531 5.77344 16.9453 5.91406 17.2812 6.04688C17.7188 6.21875 18.0312 6.42188 18.3594 6.75C18.6875 7.07812 18.8906 7.39062 19.0625 7.82812C19.1953 8.16406 19.3359 8.65625 19.3828 9.5625C19.4297 10.5078 19.4375 10.7969 19.4375 13.1094C19.4375 15.4219 19.4297 15.7109 19.3828 16.6562C19.3359 17.5625 19.1953 18.0547 19.0625 18.3906C18.8906 18.8281 18.6875 19.1406 18.3594 19.4688C18.0312 19.7969 17.7188 20 17.2812 20.1719C16.9453 20.3047 16.4531 20.4453 15.5469 20.4922C14.6016 20.5391 14.3125 20.5469 12 20.5469C9.6875 20.5469 9.39844 20.5391 8.45312 20.4922C7.54688 20.4453 7.05469 20.3047 6.71875 20.1719C6.28125 20 5.96875 19.7969 5.64062 19.4688C5.3125 19.1406 5.10938 18.8281 4.9375 18.3906C4.80469 18.0547 4.66406 17.5625 4.61719 16.6562C4.57031 15.7109 4.5625 15.4219 4.5625 13.1094C4.5625 10.7969 4.57031 10.5078 4.61719 9.5625C4.66406 8.65625 4.80469 8.16406 4.9375 7.82812C5.10938 7.39062 5.3125 7.07812 5.64062 6.75C5.96875 6.42188 6.28125 6.21875 6.71875 6.04688C7.05469 5.91406 7.54688 5.77344 8.45312 5.72656C9.39844 5.67969 9.6875 5.67188 12 5.67188ZM12 4C9.64062 4 9.32812 4.00781 8.375 4.05469C7.42188 4.10156 6.75781 4.25 6.1875 4.46875C5.59375 4.69531 5.10156 5 4.60938 5.49219C4.11719 5.98438 3.8125 6.47656 3.58594 7.07031C3.36719 7.64062 3.21875 8.30469 3.17188 9.25781C3.125 10.2109 3.11719 10.5234 3.11719 12.8828C3.11719 15.2422 3.125 15.5547 3.17188 16.5078C3.21875 17.4609 3.36719 18.125 3.58594 18.6953C3.8125 19.2891 4.11719 19.7812 4.60938 20.2734C5.10156 20.7656 5.59375 21.0703 6.1875 21.2969C6.75781 21.5156 7.42188 21.6641 8.375 21.7109C9.32812 21.7578 9.64062 21.7656 12 21.7656C14.3594 21.7656 14.6719 21.7578 15.625 21.7109C16.5781 21.6641 17.2422 21.5156 17.8125 21.2969C18.4062 21.0703 18.8984 20.7656 19.3906 20.2734C19.8828 19.7812 20.1875 19.2891 20.4141 18.6953C20.6328 18.125 20.7812 17.4609 20.8281 16.5078C20.875 15.5547 20.8828 15.2422 20.8828 12.8828C20.8828 10.5234 20.875 10.2109 20.8281 9.25781C20.7812 8.30469 20.6328 7.64062 20.4141 7.07031C20.1875 6.47656 19.8828 5.98438 19.3906 5.49219C18.8984 5 18.4062 4.69531 17.8125 4.46875C17.2422 4.25 16.5781 4.10156 15.625 4.05469C14.6719 4.00781 14.3594 4 12 4ZM12 7.78125C9.39844 7.78125 7.28125 9.89844 7.28125 12.5C7.28125 15.1016 9.39844 17.2188 12 17.2188C14.6016 17.2188 16.7188 15.1016 16.7188 12.5C16.7188 9.89844 14.6016 7.78125 12 7.78125ZM12 15.5469C10.3906 15.5469 9.07812 14.2344 9.07812 12.625C9.07812 11.0156 10.3906 9.70312 12 9.70312C13.6094 9.70312 14.9219 11.0156 14.9219 12.625C14.9219 14.2344 13.6094 15.5469 12 15.5469ZM16.9531 7.61719C17.3984 7.61719 17.7578 7.25781 17.7578 6.8125C17.7578 6.36719 17.3984 6.00781 16.9531 6.00781C16.5078 6.00781 16.1484 6.36719 16.1484 6.8125C16.1484 7.25781 16.5078 7.61719 16.9531 7.61719Z"/>
</svg>
